<svg xmlns="http://www.w3.org/2000/svg" xmlns:xlink="http://www.w3.org/1999/xlink" viewBox="0 0 3972 4404" height="4404" width="3972"><defs><path id="a" d="M0 0h3972v4404H0z"/></defs><g fill="none" fill-rule="evenodd"><mask id="b" fill="#fff"><use xlink:href="#a"/></mask><g mask="url(#b)"><path fill="#05192D" fill-rule="nonzero" d="M2572 2781l1439.192-833.174L4127 1776.508 4046.226 2H2798.962z"/><g fill="#05192D" fill-rule="nonzero"><path d="M1202 1024h1600v1625.171l-1600 920.438z"/><path d="M0 0h2800v2559H0z"/><path d="M1 0h1200v3570H1z"/></g><path fill="#7933FF" d="M2468 2841.213l2067.203-1193.5 32 55.425L2500 2896.638z"/><path fill="#05172C" d="M2633.698 2782.426l2079.327-1200.5 16 27.713-2079.327 1200.5z"/><path fill="#EFEBE4" d="M2679 2682.713l2079.327-1200.5 16 27.713L2695 2710.426z"/><path fill="#FCCE0D" d="M2649.698 2810.139l306.573-177 16 27.713-306.573 177z"/><path fill="#05192D" fill-rule="nonzero" d="M-954.276 3169.707l2708.928-1564 712.5 1234.086-2708.928 1564z"/></g></g></svg>